<svg width="33" height="36" viewBox="0 0 33 36" fill="none" xmlns="http://www.w3.org/2000/svg">
<path d="M18.4499 17.4766L24.2142 11.7123L5.59571 1.24805C4.36176 0.581366 3.20578 0.487797 2.19211 1.21686L18.4499 17.4766Z" fill="#34A855"/>
<path d="M1.19012 2.63406C1.06536 3.01808 0.995178 3.44694 0.995178 3.91674V32.5823C0.995178 33.325 1.15893 33.9644 1.45523 34.4732L17.2393 18.6871L1.19012 2.63406Z" fill="#4385F6"/>
<path d="M18.4499 19.5974L2.75351 35.2957C3.05372 35.4107 3.37731 35.4711 3.71845 35.4711C4.32666 35.4711 4.9602 35.2918 5.60544 34.9331L23.6469 24.8022L18.4499 19.5974Z" fill="#EA4235"/>
<path d="M25.1967 24.3021L31.189 20.9316C32.3587 20.2766 33 19.3487 33 18.3195C33 17.2921 32.3587 16.3623 31.191 15.7073L25.7659 12.6604L19.6585 18.7659L25.1967 24.3021Z" fill="#F9BB04"/>
</svg>
