<svg width="28" height="28" viewBox="0 0 28 28" fill="none" xmlns="http://www.w3.org/2000/svg">
<path d="M20.3644 15.4C21.4141 15.4 22.3378 14.826 22.8137 13.958L27.8243 4.872C27.9423 4.6598 28.0028 4.42046 27.9999 4.17768C27.997 3.93489 27.9308 3.69708 27.8077 3.48777C27.6847 3.27845 27.5092 3.10489 27.2986 2.98427C27.0879 2.86364 26.8494 2.80012 26.6067 2.8H5.89238L4.57674 0H0V2.8H2.79923L7.83784 13.426L5.94836 16.842C4.92664 18.718 6.27027 21 8.39769 21H25.1931V18.2H8.39769L9.93726 15.4H20.3644ZM7.22201 5.6H24.2273L20.3644 12.6H10.5391L7.22201 5.6ZM8.39769 22.4C6.85811 22.4 5.61246 23.66 5.61246 25.2C5.61246 26.74 6.85811 28 8.39769 28C9.93726 28 11.1969 26.74 11.1969 25.2C11.1969 23.66 9.93726 22.4 8.39769 22.4ZM22.3938 22.4C20.8543 22.4 19.6086 23.66 19.6086 25.2C19.6086 26.74 20.8543 28 22.3938 28C23.9334 28 25.1931 26.74 25.1931 25.2C25.1931 23.66 23.9334 22.4 22.3938 22.4Z" fill="white"/>
</svg>
